<svg width="115" height="117" viewBox="0 0 115 117" fill="none" xmlns="http://www.w3.org/2000/svg">
<path d="M3.33333 3.33334C0 6.53334 0 6.66668 0 34.4C0 65.4667 0.933333 72.9333 6.53333 84.9333C11.7333 96 19.4667 104 30.4 109.867C52.9333 121.6 77.7333 118.4 96.4 101.333C125.733 74.5333 118.267 25.0667 82.2667 7.33334C69.2 0.933344 62.5333 1.0182e-05 32.4 1.0182e-05C6.66667 1.0182e-05 6.53333 1.0182e-05 3.33333 3.33334ZM62.9333 36C72.9333 38.8 81.2 49.6 81.3333 59.8667C81.3333 70.6667 72.1333 81.3333 60.9333 83.4667C50.4 85.3334 37.8667 76.8 34.8 65.7334C32.8 58.6667 32.9333 38.2667 34.9333 36.2667C36.9333 34.2667 56 34.1333 62.9333 36Z" fill="white"/>
</svg>
