<svg xmlns="http://www.w3.org/2000/svg" fill="#9CA3AF" height="20" viewBox="0 96 960 960" width="20"><path d="M480 976q-17 0-28.5-11.5T440 936V808l-37 37q-11 11-27 11t-28-12q-11-11-11-28t11-28l104-104q6-6 13-8.5t15-2.5q8 0 15 2.5t13 8.5l105 105q11 11 11 27t-12 28q-11 11-28 11t-28-11l-36-36v128q0 17-11.5 28.5T480 976ZM200 616q-17 0-28.5-11.5T160 576q0-17 11.5-28.5T200 536h560q17 0 28.5 11.5T800 576q0 17-11.5 28.5T760 616H200Zm280-137q-8 0-15-2.5t-13-8.5L347 363q-11-11-11-27t12-28q11-11 28-11t28 11l36 36V216q0-17 11.5-28.5T480 176q17 0 28.5 11.5T520 216v128l37-37q11-11 27-11t28 12q11 11 11 28t-11 28L508 468q-6 6-13 8.5t-15 2.5Z"/></svg>