<svg xmlns="http://www.w3.org/2000/svg" fill="#9CA3AF" height="24" viewBox="0 96 960 960" width="24"><path d="M478 816q21 0 35.5-14.5T528 766q0-21-14.5-35.5T478 716q-21 0-35.5 14.5T428 766q0 21 14.5 35.5T478 816Zm6-412q28 0 45 15.5t17 40.5q0 17-11.5 34.5T502 531q-30 26-44 50t-14 48q0 14 10.5 23.5T479 662q14 0 25-10t14-25q3-17 13.5-31.5T566 558q31-29 43.5-53t12.5-53q0-51-38.5-83.5T484 336q-42 0-74.5 16T359 401q-7 13-5 25.5t14 20.5q13 8 28.5 5t25.5-17q11-15 26.5-23t35.5-8Zm-4 572q-82 0-155-31.5T197.5 859q-54.5-54-86-127T80 576q0-83 31.5-156t86-127Q252 239 325 207.5T480 176q84 0 157 31.5T764 293q54 54 85 127t31 156q0 83-31 156t-85 127q-54 54-127 85.5T480 976Zm0-400Zm0 320q134 0 227-93.5T800 576q0-133-93-226.5T480 256q-131 0-225.5 93.5T160 576q0 133 94.5 226.5T480 896Z"/></svg>