<svg xmlns="http://www.w3.org/2000/svg" fill="#9CA3AF" height="24" viewBox="0 96 960 960" width="24"><path d="M200 536q-33 0-56.5-23.5T120 456V296q0-33 23.5-56.5T200 216h160q33 0 56.5 23.5T440 296v160q0 33-23.5 56.5T360 536H200Zm0 400q-33 0-56.5-23.5T120 856V696q0-33 23.5-56.5T200 616h160q33 0 56.5 23.5T440 696v160q0 33-23.5 56.5T360 936H200Zm400-400q-33 0-56.5-23.5T520 456V296q0-33 23.5-56.5T600 216h160q33 0 56.5 23.5T840 296v160q0 33-23.5 56.5T760 536H600Zm0 400q-33 0-56.5-23.5T520 856V696q0-33 23.5-56.5T600 616h160q33 0 56.5 23.5T840 696v160q0 33-23.5 56.5T760 936H600ZM200 456h160V296H200v160Zm400 0h160V296H600v160Zm0 400h160V696H600v160Zm-400 0h160V696H200v160Zm400-400Zm0 240Zm-240 0Zm0-240Z"/></svg>