<svg xmlns="http://www.w3.org/2000/svg" fill="#9CA3AF" height="24" viewBox="0 96 960 960" width="24"><path d="M480 736q75 0 127.5-52.5T660 556q0-75-52.5-127.5T480 376q-75 0-127.5 52.5T300 556q0 75 52.5 127.5T480 736Zm.042-77.022q-42.89 0-72.955-30.023-30.065-30.023-30.065-72.913t30.023-72.955q30.023-30.065 72.913-30.065t72.955 30.023q30.065 30.023 30.065 72.913t-30.023 72.955q-30.023 30.065-72.913 30.065ZM480 863.413q-140.674 0-257.228-74.815-116.555-74.815-176.75-201.25-3.43-5.658-4.574-14.144-1.144-8.487-1.144-17.204t1.144-17.204q1.143-8.486 4.574-14.144 60.195-126.435 176.75-201.25Q339.326 248.587 480 248.587t257.228 74.815q116.555 74.815 176.75 201.25 3.431 5.658 4.574 14.144 1.144 8.487 1.144 17.204t-1.144 17.204q-1.143 8.486-4.574 14.144-60.195 126.435-176.75 201.25Q620.674 863.413 480 863.413ZM480 556Zm.021 220q112.74 0 207.001-59.62Q781.283 656.761 831.283 556q-50-100.761-144.283-160.38Q592.718 336 479.979 336q-112.74 0-207.001 59.62Q178.717 455.239 128.717 556q50 100.761 144.283 160.38Q367.282 776 480.021 776Z"/></svg>